<?xml version="1.0" encoding="utf-8"?>
<!-- Generator: Adobe Illustrator 24.0.3, SVG Export Plug-In . SVG Version: 6.00 Build 0)  -->
<svg version="1.1" id="Layer_1" xmlns="http://www.w3.org/2000/svg" xmlns:xlink="http://www.w3.org/1999/xlink" x="0px" y="0px"
	 viewBox="0 0 32 32" style="enable-background:new 0 0 32 32;" xml:space="preserve">
<path fill="#efeadc" d="M28.9,21.4c-0.1,2.1-0.6,3.9-2.1,5.4c-1.5,1.5-3.4,2-5.4,2.1c-2.1,0.1-8.6,0.1-10.7,0c-2.1-0.1-3.9-0.6-5.4-2.1
	c-1.5-1.5-2-3.4-2.1-5.4C3,19.2,3,12.8,3.1,10.6c0.1-2.1,0.6-3.9,2.1-5.4s3.4-2,5.4-2.1c2.1-0.1,8.6-0.1,10.7,0
	c2.1,0.1,3.9,0.6,5.4,2.1c1.5,1.5,2,3.4,2.1,5.4C29,12.8,29,19.2,28.9,21.4z M26.7,16c0-1.9,0.2-6-0.5-7.7c-0.5-1.1-1.3-2-2.5-2.5
	C22,5.2,17.9,5.3,16,5.3c-1.9,0-6-0.2-7.7,0.5c-1.1,0.5-2,1.3-2.5,2.5C5.2,10,5.3,14.1,5.3,16c0,1.9-0.2,6,0.5,7.7
	c0.5,1.1,1.3,2,2.5,2.5c1.7,0.7,5.8,0.5,7.7,0.5c1.9,0,6,0.2,7.7-0.5c1.1-0.5,2-1.3,2.5-2.5C26.8,22,26.7,17.9,26.7,16z M22.7,16
	c0,3.7-3,6.7-6.7,6.7c-3.7,0-6.7-3-6.7-6.7c0-3.7,3-6.7,6.7-6.7C19.7,9.3,22.7,12.3,22.7,16z M20.3,16c0-2.4-1.9-4.3-4.3-4.3
	c-2.4,0-4.3,1.9-4.3,4.3s1.9,4.3,4.3,4.3C18.4,20.3,20.3,18.4,20.3,16z M22.9,10.6c-0.9,0-1.6-0.7-1.6-1.6c0-0.9,0.7-1.6,1.6-1.6
	c0.9,0,1.6,0.7,1.6,1.6C24.5,9.9,23.8,10.6,22.9,10.6z"/>
</svg>
