<?xml version="1.0" encoding="utf-8"?>
<!-- Generator: Adobe Illustrator 24.0.3, SVG Export Plug-In . SVG Version: 6.00 Build 0)  -->
<svg version="1.1" id="Layer_1" xmlns="http://www.w3.org/2000/svg" xmlns:xlink="http://www.w3.org/1999/xlink" x="0px" y="0px"
	 viewBox="0 0 32 32" style="enable-background:new 0 0 32 32;" xml:space="preserve">
<g>
	<path fill="#efeadc" d="M31,4.2v23.6c0,1.8-1.4,3.2-3.2,3.2h-9.2V20.8h3.9l0.7-4.8h-4.6v-3.1c0-1.3,0.6-2.6,2.7-2.6h2.1V6.2c0,0-1.9-0.3-3.7-0.3
		c-3.8,0-6.3,2.3-6.3,6.5V16H9.2v4.8h4.2V31H4.2C2.4,31,1,29.6,1,27.8V4.2C1,2.4,2.4,1,4.2,1h23.6C29.6,1,31,2.4,31,4.2z"/>
</g>
</svg>
