<svg xmlns="http://www.w3.org/2000/svg" viewBox="0 0 64 64"><path fill="#BDC2C8" d="M15.4 50.5h-2.3V39.1H16l1.9 6.5 1.9-6.5h2.8v11.4h-2.3v-7.7L18.8 48h-1.9l-1.5-5.2v7.7zM27.7 48.6h3.7v1.9h-6.2V39.1h6.1V41h-3.5v2.8h3v1.9h-3v2.9zM38.1 39.1h2.4v11.4h-2.3l-2.5-6.9v6.9h-2.3V39.1h2.3l2.5 6.8v-6.8zM47.4 39.1H50v9.5c0 1.3-.8 2-2.3 2h-2.4c-1.5 0-2.3-.7-2.3-2v-9.5h2.6v9.1c0 .3.2.4.5.4h.9c.3 0 .5-.1.5-.4v-9.1zM48.8 31.7h-34c-.8 0-1.5-.7-1.5-1.5s.7-1.5 1.5-1.5h34c.8 0 1.5.7 1.5 1.5s-.7 1.5-1.5 1.5zM48.8 23.4h-34c-.8 0-1.5-.7-1.5-1.5s.7-1.5 1.5-1.5h34c.8 0 1.5.7 1.5 1.5s-.7 1.5-1.5 1.5zM48.8 15h-34c-.8 0-1.5-.7-1.5-1.5S14 12 14.8 12h34c.8 0 1.5.7 1.5 1.5s-.7 1.5-1.5 1.5z"/></svg>